<svg width="21" height="18" viewBox="0 0 21 18" fill="none" xmlns="http://www.w3.org/2000/svg">
<path d="M11.6665 2H19.6665M11.6665 6H16.6665M11.6665 12H19.6665M11.6665 16H16.6665M1.6665 2C1.6665 1.73478 1.77186 1.48043 1.9594 1.29289C2.14693 1.10536 2.40129 1 2.6665 1H6.6665C6.93172 1 7.18607 1.10536 7.37361 1.29289C7.56115 1.48043 7.6665 1.73478 7.6665 2V6C7.6665 6.26522 7.56115 6.51957 7.37361 6.70711C7.18607 6.89464 6.93172 7 6.6665 7H2.6665C2.40129 7 2.14693 6.89464 1.9594 6.70711C1.77186 6.51957 1.6665 6.26522 1.6665 6V2ZM1.6665 12C1.6665 11.7348 1.77186 11.4804 1.9594 11.2929C2.14693 11.1054 2.40129 11 2.6665 11H6.6665C6.93172 11 7.18607 11.1054 7.37361 11.2929C7.56115 11.4804 7.6665 11.7348 7.6665 12V16C7.6665 16.2652 7.56115 16.5196 7.37361 16.7071C7.18607 16.8946 6.93172 17 6.6665 17H2.6665C2.40129 17 2.14693 16.8946 1.9594 16.7071C1.77186 16.5196 1.6665 16.2652 1.6665 16V12Z" stroke="#117FE3" stroke-width="1.6" stroke-linecap="round" stroke-linejoin="round"/>
</svg>
