<svg width="77" height="14" viewBox="0 0 77 14" fill="none" xmlns="http://www.w3.org/2000/svg">
<path fill-rule="evenodd" clip-rule="evenodd" d="M22.7972 10.377C22.1264 10.3803 21.4701 10.1824 20.9135 9.80906C20.3506 9.43842 19.915 8.90478 19.6651 8.27987C19.4036 7.65895 19.3349 6.97401 19.468 6.31373C19.6037 5.65642 19.9225 5.05062 20.3878 4.56593C20.8586 4.08562 21.4635 3.75789 22.1238 3.62541C22.784 3.49293 23.4689 3.56185 24.0893 3.82319C24.7078 4.08573 25.2393 4.51738 25.6224 5.06832C26.0563 5.7213 26.2517 6.50328 26.1759 7.283C26.1002 8.06271 25.7578 8.79269 25.2062 9.35038C24.8969 9.67742 24.5233 9.93736 24.1088 10.114C23.6943 10.2906 23.2479 10.3802 22.7972 10.377ZM22.7972 8.09411e-05C21.6186 -0.00559753 20.4579 0.287593 19.4242 0.852121C18.3905 1.41472 17.5155 2.228 16.8801 3.21689C16.2446 4.20578 15.8692 5.3384 15.7884 6.51021C15.7009 7.68194 15.9198 8.85627 16.4236 9.91836C17.1755 11.5271 18.5128 12.7903 20.1642 13.4516C21.8156 14.1129 23.6574 14.1228 25.3158 13.4793C26.4175 13.0564 27.3908 12.3565 28.1412 11.4476C27.6974 12.281 27.0398 12.9821 26.2356 13.4793V13.8506H29.7838V6.94729C29.7767 5.10318 29.0376 3.33695 27.7283 2.035C26.4189 0.73306 24.646 0.00139571 22.7972 8.09411e-05ZM56.3947 10.4426H51.7954V8.17056H56.3071C56.8766 8.17056 57.5336 8.69496 57.5336 9.30666C57.5336 9.74361 57.1832 10.4426 56.3947 10.4426ZM51.7734 3.53913H55.6501C56.0663 3.53913 56.7671 3.97608 56.7671 4.65337C56.7671 5.19949 56.329 5.78933 55.5405 5.78933H51.7954L51.7734 3.53913ZM59.5486 6.57579C60.3809 5.3088 60.4685 3.561 59.702 2.25028C59.3275 1.59988 58.7822 1.06363 58.125 0.699229C57.4759 0.332052 56.7464 0.129461 56.0005 0.109251H48.2472V13.8725H56.9203C59.6361 13.8725 61.1474 11.6223 61.1474 9.74361C61.1474 7.95222 60.1181 7.03474 59.5486 6.57579ZM44.7429 5.17763C45.9037 8.30173 45.9694 11.1636 45.9694 13.8725H42.3774C42.3774 11.666 42.2899 9.65617 41.8299 7.84292C41.2166 5.41797 40.0559 3.64844 38.9826 3.64844C37.9094 3.64844 36.7488 5.41783 36.1354 7.84292C35.6755 9.65617 35.5878 11.6004 35.5878 13.8725H31.9959C31.9959 11.404 32.0616 8.32359 33.2225 5.17763C34.3175 2.27214 36.3325 8.09411e-05 38.9826 8.09411e-05C41.6328 8.09411e-05 43.6478 2.27214 44.7429 5.17763ZM14.4086 0.109251V1.55127C14.4052 2.59345 14.1734 3.62229 13.7296 4.56579C13.2872 5.50788 12.6356 6.33718 11.8242 6.99088C12.6355 7.6445 13.2871 8.47371 13.7296 9.4157C14.1735 10.3593 14.4052 11.3882 14.4086 12.4305V13.8725H10.8167V12.0591C10.8167 11.6173 10.7295 11.1798 10.56 10.7716C10.3905 10.3635 10.142 9.99257 9.82881 9.68015C9.5156 9.36774 9.14377 9.11993 8.73455 8.95085C8.32533 8.78178 7.88672 8.69475 7.44378 8.69475C7.00084 8.69475 6.56224 8.78178 6.15302 8.95085C5.74379 9.11993 5.37196 9.36774 5.05876 9.68015C4.74555 9.99257 4.4971 10.3635 4.3276 10.7716C4.15809 11.1798 4.07085 11.6173 4.07085 12.0591V13.8724H0.457031V12.4306C0.460457 11.3883 0.692201 10.3594 1.13604 9.41583C1.57851 8.47379 2.23009 7.64454 3.04144 6.99088C2.23009 6.33722 1.57851 5.50796 1.13604 4.56593C0.692201 3.62234 0.460457 2.59341 0.457031 1.55113V0.109251H4.04893V1.9225C4.04893 2.36431 4.13617 2.8018 4.30568 3.20999C4.47519 3.61817 4.72363 3.98906 5.03684 4.30147C5.35005 4.61388 5.72188 4.86169 6.1311 5.03077C6.54032 5.19985 6.97893 5.28687 7.42187 5.28687C7.86481 5.28687 8.30341 5.19985 8.71263 5.03077C9.12186 4.86169 9.49369 4.61388 9.80689 4.30147C10.1201 3.98906 10.3685 3.61817 10.5381 3.20999C10.7076 2.8018 10.7948 2.36431 10.7948 1.9225V0.109251H14.4086ZM69.4702 10.3772C68.7995 10.3804 68.1433 10.1824 67.5867 9.80906C67.0238 9.43842 66.5882 8.90478 66.3383 8.27987C66.0767 7.65895 66.0081 6.97401 66.1412 6.31373C66.2768 5.65642 66.5957 5.05062 67.061 4.56593C67.5318 4.08565 68.1367 3.75793 68.7969 3.62545C69.4571 3.49298 70.142 3.56188 70.7623 3.82319C71.3809 4.08571 71.9124 4.51736 72.2956 5.06832C72.7294 5.7213 72.9249 6.50328 72.8491 7.283C72.7733 8.06271 72.431 8.79269 71.8794 9.35038C71.5701 9.67742 71.1965 9.93736 70.782 10.114C70.3675 10.2906 69.921 10.3803 69.4702 10.3772ZM76.457 6.94729C76.456 5.3041 75.8655 3.71552 74.7924 2.46876C73.9972 1.53754 72.9705 0.831088 71.8154 0.420136C70.6603 0.00918469 69.4172 -0.0918397 68.2106 0.12718C67.004 0.3462 65.8763 0.877576 64.9404 1.6681C64.0044 2.45862 63.2932 3.48053 62.8778 4.63151C62.3263 6.18017 62.334 7.87223 62.8995 9.41583C63.4636 10.9582 64.5579 12.2511 65.9878 13.0643C67.4102 13.8844 69.0768 14.1784 70.6949 13.8948C72.3131 13.6111 73.7793 12.7679 74.8362 11.5131C74.3924 12.3466 73.7349 13.0477 72.9307 13.5449V13.9162H76.457V6.94729Z" fill="black"/>
</svg>
