<svg width="36" height="24" viewBox="0 0 36 24" fill="none" xmlns="http://www.w3.org/2000/svg">
<path fill-rule="evenodd" clip-rule="evenodd" d="M13.8729 12C13.8729 13.7162 14.2732 15.4087 15.0418 16.9432C15.8104 18.4777 16.9261 19.8119 18.3004 20.8398C16.6569 22.0781 14.7009 22.8339 12.6519 23.0221C10.6029 23.2104 8.54233 22.8238 6.70052 21.9056C4.85871 20.9874 3.31 19.5741 2.22705 17.8244C1.14411 16.0746 0.570312 14.0577 0.570312 12C0.570312 9.94228 1.14411 7.92533 2.22705 6.17561C3.31 4.42581 4.85871 3.01249 6.70052 2.09433C8.54233 1.17626 10.6029 0.789565 12.6519 0.977819C14.7009 1.16616 16.6569 1.92183 18.3004 3.16018C16.9261 4.18805 15.8104 5.5223 15.0418 7.05676C14.2732 8.59121 13.8729 10.2838 13.8729 12Z" fill="black"/>
<path opacity="0.3" fill-rule="evenodd" clip-rule="evenodd" d="M24.9419 23.0686C22.5449 23.0688 20.2125 22.2862 18.3008 20.8398C19.6751 19.812 20.7908 18.4779 21.5594 16.9433C22.328 15.4089 22.7282 13.7163 22.7282 12C22.7282 10.2839 22.328 8.59127 21.5594 7.05673C20.7908 5.52227 19.6751 4.18812 18.3008 3.16025C19.7025 2.10697 21.3353 1.40203 23.0629 1.10353C24.7905 0.805127 26.565 0.921658 28.2394 1.44365C29.913 1.96564 31.4396 2.87805 32.6917 4.10568C33.9437 5.33332 34.8859 6.84103 35.4411 8.5045C35.9954 10.168 36.1468 11.9395 35.8829 13.673C35.6182 15.4065 34.9461 17.0523 33.9207 18.4748C32.8953 19.8973 31.5459 21.0556 29.9847 21.8543C28.4236 22.6531 26.6952 23.0693 24.9419 23.0686Z" fill="black"/>
<path opacity="0.65" fill-rule="evenodd" clip-rule="evenodd" d="M13.8711 11.9999C13.8711 10.2838 14.2713 8.59119 15.0399 7.05673C15.8085 5.52228 16.9242 4.18811 18.2985 3.16016C19.6728 4.18803 20.7885 5.52218 21.5571 7.05664C22.3257 8.59118 22.7259 10.2838 22.7259 11.9999C22.7259 13.7162 22.3257 15.4088 21.5571 16.9432C20.7885 18.4778 19.6728 19.8119 18.2985 20.8397C16.9242 19.8119 15.8085 18.4777 15.0399 16.9432C14.2713 15.4087 13.8711 13.7162 13.8711 11.9999Z" fill="black"/>
</svg>
