<svg width="59" height="16" viewBox="0 0 59 16" fill="none" xmlns="http://www.w3.org/2000/svg">
<path fill-rule="evenodd" clip-rule="evenodd" d="M14.6825 15.5267V6.58329H14.2875L11.454 15.5267H8.08913H8.0794L5.25563 6.58329H4.86331V15.5267H0.03125V0.47345H4.87044C5.47346 0.470616 6.06227 0.661972 6.5484 1.01918C7.03453 1.37629 7.39226 1.88039 7.57024 2.45693L9.55906 9.41418H9.97786L11.9702 2.45693C12.1491 1.87933 12.5086 1.37461 12.9965 1.01741C13.4844 0.660202 14.0741 0.469465 14.6789 0.47345H19.5181V15.5267H14.6789H14.6825Z" fill="black"/>
<path fill-rule="evenodd" clip-rule="evenodd" d="M33.1931 15.5266V6.66204H32.8115L29.5113 14.0886C29.3174 14.5177 29.0039 14.8816 28.6081 15.1367C28.2114 15.3918 27.7509 15.5271 27.2799 15.5266H23.0508V0.473392H27.9209V9.33797H28.3203L31.6621 1.89991C31.6709 1.88131 31.679 1.86183 31.6878 1.84323V1.83792C31.8897 1.42777 32.2032 1.08251 32.5919 0.841307C32.9797 0.600102 33.4287 0.472683 33.8856 0.473392H38.1147V15.5266H33.1931Z" fill="black"/>
<path fill-rule="evenodd" clip-rule="evenodd" d="M52.3908 11.1064H46.5891V15.5267H41.6641V7.55737H58.0287C57.5408 8.6366 56.7456 9.54847 55.7433 10.1795C54.7409 10.8105 53.5747 11.1329 52.3908 11.1064Z" fill="black"/>
<path opacity="0.55" fill-rule="evenodd" clip-rule="evenodd" d="M58.3417 5.78629H48.9813C44.916 5.78629 41.5361 3.33173 40.8242 0.473389H52.8322C55.9412 0.473389 58.4604 2.62777 58.4604 4.9318C58.4604 5.22074 58.4205 5.50825 58.3417 5.78629Z" fill="black"/>
</svg>
