<svg width="77" height="10" viewBox="0 0 77 10" fill="none" xmlns="http://www.w3.org/2000/svg">
<path d="M7.63142 9.70248V2.77854H11.7838V0.258712H0.457031V2.77854H4.60846V9.70248H7.63142ZM16.0165 0.258712H12.9935V9.70248H16.0165V0.258712ZM18.2292 0.258712V9.70248H21.0074V4.4843L26.1945 9.70248H28.7659V0.258712H25.9913V5.43722L20.9278 0.258712H18.2292ZM34.713 6.13142L38.1946 9.70248H42.0915L37.2314 4.78182L41.906 0.258712H38.2388L34.713 3.80993H33.9088V0.258712H30.9839V9.70248H33.9088V6.13142H34.713ZM48.1004 0C44.1681 0 41.8176 2.18265 41.8176 5C41.8176 7.81821 44.1681 10 48.1004 10C52.015 10 54.3655 7.81821 54.3655 5C54.3655 2.18265 52.015 0 48.1004 0ZM48.1004 7.69834C46.1475 7.69834 44.8927 6.54795 44.8927 5C44.8927 3.45292 46.1475 2.32149 48.1004 2.32149C50.0356 2.32149 51.3081 3.45292 51.3081 5C51.3081 6.54795 50.0356 7.69834 48.1004 7.69834ZM65.4555 0.258712H55.7617V9.70248H58.6778V6.40911H65.0313V4.32563H58.6778V2.65954H65.4555V0.258712ZM76.457 0.258712H66.7633V9.70248H69.6793V6.40911H76.0329V4.32563H69.6793V2.65954H76.457V0.258712Z" fill="black"/>
</svg>
