<svg width="34" height="26" viewBox="0 0 34 26" fill="none" xmlns="http://www.w3.org/2000/svg">
<rect x="6.8" y="3.3" width="20.4" height="20.4" rx="7.2" stroke="#16191E" stroke-width="1.6"/>
<path d="M14.1089 13.9468C13.3421 13.18 12.9113 12.14 12.9113 11.0555C12.9113 9.9711 13.3421 8.93108 14.1089 8.16426C14.8758 7.39745 15.9158 6.96666 17.0002 6.96666C18.0847 6.96666 19.1247 7.39745 19.8915 8.16426C20.6583 8.93108 21.0891 9.9711 21.0891 11.0555C21.0891 12.14 20.6583 13.18 19.8915 13.9468C19.1247 14.7136 18.0847 15.1444 17.0002 15.1444C15.9158 15.1444 14.8758 14.7136 14.1089 13.9468Z" stroke="#16191E" stroke-width="1.6"/>
<path d="M24.3337 22.0556C24.3337 18.3055 21.0504 15.9445 17.0003 15.9445C12.9502 15.9445 9.66699 18.3055 9.66699 22.0556" stroke="#16191E" stroke-width="1.6"/>
</svg>
