<svg width="48" height="16" viewBox="0 0 48 16" fill="none" xmlns="http://www.w3.org/2000/svg">
<path fill-rule="evenodd" clip-rule="evenodd" d="M43.9461 15.5678C43.9461 15.5678 43.5999 13.4551 43.4839 12.9255H38.4783C38.3401 13.3399 37.6486 15.5678 37.6486 15.5678H33.5647L39.3558 1.7587C39.4996 1.34828 39.779 0.999125 40.1483 0.768899C40.5166 0.538674 40.9532 0.441187 41.3853 0.492456H44.4075L47.5677 15.5678H43.9461ZM41.9387 5.85406L41.6616 4.56479C41.4774 5.14036 41.1303 6.03824 41.1542 6.01522C41.1542 6.01522 39.9083 9.35172 39.609 10.2257H42.8384C42.679 9.46417 41.9387 5.85406 41.9387 5.85406ZM33.5417 3.96798C32.6298 3.55605 31.6355 3.35912 30.6355 3.39241C29.0895 3.39241 28.397 4.03616 28.374 4.68079C28.374 5.39449 29.2055 5.85405 30.5877 6.5403C32.8262 7.59846 33.864 8.90986 33.841 10.6348C33.818 13.7411 31.165 15.7653 27.0582 15.7653C25.5744 15.7702 24.1028 15.4975 22.7193 14.9613L23.2506 11.5787L23.7819 11.832C24.9146 12.3888 26.1647 12.6648 27.4265 12.6369C28.5573 12.6369 29.7562 12.1764 29.7802 11.1643C29.7802 10.4975 29.2728 10.0132 27.7497 9.27822C26.2736 8.56452 24.3123 7.36824 24.3353 5.205C24.3583 2.2829 27.0573 0.23478 30.91 0.23478C32.1067 0.227962 33.2947 0.437996 34.4165 0.854616L33.8853 4.12294L33.5417 3.96798ZM16.3792 15.5678L18.8241 0.492456H22.7202L20.2763 15.5678H16.3792ZM6.99311 15.5678L3.72656 3.29235C4.25706 3.55986 4.75957 3.87961 5.22657 4.2469C6.64574 5.40645 7.85956 6.79665 8.81721 8.35909L8.88185 8.68406L9.29714 10.7552L13.126 0.492456H17.2559L11.1195 15.5678H6.994H6.99311Z" fill="black"/>
<path opacity="0.35" fill-rule="evenodd" clip-rule="evenodd" d="M5.22436 4.24705C4.75762 3.8794 4.25502 3.55965 3.72435 3.2925L3.50209 2.45748C2.39913 1.82498 1.22303 1.32965 0 0.982275V0.515625H5.98941C6.34777 0.51651 6.69505 0.639943 6.97354 0.865476C7.25202 1.09101 7.44506 1.405 7.52041 1.7553L8.81676 8.35569C7.85823 6.79432 6.64379 5.40544 5.22436 4.24705Z" fill="black"/>
</svg>
