<svg width="19" height="15" viewBox="0 0 19 15" fill="none" xmlns="http://www.w3.org/2000/svg">
<path d="M1 5.64286H18M4.77778 10.2857H4.78722M8.55556 10.2857H10.4444M1 3.78571C1 3.0469 1.29851 2.33834 1.82986 1.81592C2.36122 1.29349 3.08189 1 3.83333 1H15.1667C15.9181 1 16.6388 1.29349 17.1701 1.81592C17.7015 2.33834 18 3.0469 18 3.78571V11.2143C18 11.9531 17.7015 12.6617 17.1701 13.1841C16.6388 13.7065 15.9181 14 15.1667 14H3.83333C3.08189 14 2.36122 13.7065 1.82986 13.1841C1.29851 12.6617 1 11.9531 1 11.2143V3.78571Z" stroke="#117FE3" stroke-width="1.6" stroke-linecap="round" stroke-linejoin="round"/>
</svg>
